<svg xmlns="http://www.w3.org/2000/svg" width="132" height="132" fill="none">
  <path d="M65.996 82.2c20.798 0 37.848 15.523 37.8 37.8H28.2c-.042-22.266 17.002-37.8 37.796-37.8Z" fill="#FF7009"/>
  <path d="M97.173 29.515c-4.775 0-8.178 2.082-11.321 6.598L76.8 49.118V12H55.2v37.117L46.15 36.114c-3.143-4.516-6.546-6.598-11.322-6.598-7.206 0-12.003 5.32-12.027 11.875-.02 5.616 2.629 9.273 8.208 12.865L66 76.8l34.992-22.545c5.576-3.592 8.226-7.251 8.208-12.865-.023-6.554-4.821-11.875-12.027-11.875Z" fill="#0AAD0A"/>
</svg>
