<svg width="28" height="28" viewBox="0 0 132 132" fill="none" xmlns="http://www.w3.org/2000/svg">
  <path d="M21.281 30.75h89.297v75.094c0 7.766-6.296 14.062-14.063 14.062H35.345c-7.767 0-14.063-6.296-14.063-14.062V30.75ZM39 21.188h8.86v9.562H39v-9.563ZM84.14 21.188H93v9.562h-8.86v-9.563ZM47.86 21.188v-8.86h36.28v8.86H47.86Z" fill="#003D29"/>
  <path d="M47.86 12.328 39 21.188h8.86v-8.86ZM84.14 12.328l8.86 8.86h-8.86v-8.86Z" fill="#003D29"/>
  <path d="m67.201 112.353 11.667-25.639c4.888-12.195-2.862-21.691-12.903-21.691-10.042 0-17.788 9.505-12.899 21.691l11.666 25.639h2.47Z" fill="#FF7009"/>
  <path d="M77.846 44.946c-1.82 0-3.116.793-4.314 2.514l-3.45 4.955V38.271h-8.23v14.144l-3.45-4.955c-1.198-1.721-2.495-2.514-4.314-2.514-2.746 0-4.575 2.027-4.584 4.525-.007 2.14 1.002 3.533 3.128 4.902l13.335 8.592 13.335-8.592c2.124-1.369 3.134-2.763 3.127-4.902-.009-2.498-1.837-4.525-4.583-4.525Z" fill="#0AAD0A"/>
</svg>